<?xml version="1.0" encoding="utf-8"?>
<!-- Generator: Adobe Illustrator 27.9.4, SVG Export Plug-In . SVG Version: 9.03 Build 54784)  -->
<svg version="1.1" id="Layer_1" xmlns="http://www.w3.org/2000/svg" xmlns:xlink="http://www.w3.org/1999/xlink" x="0px" y="0px"
	 width="500px" height="500px" viewBox="0 0 500 500" style="enable-background:new 0 0 500 500;" xml:space="preserve">
<style type="text/css">
	.st0{clip-path:url(#SVGID_00000046337979463553921870000004054003791854497950_);fill:none;}
	.st1{clip-path:url(#SVGID_00000046337979463553921870000004054003791854497950_);fill:#E0EBFD;}
	
		.st2{opacity:0.2;clip-path:url(#SVGID_00000046337979463553921870000004054003791854497950_);fill:#FFFFFF;enable-background:new    ;}
	
		.st3{clip-path:url(#SVGID_00000046337979463553921870000004054003791854497950_);fill:none;stroke:#085FD9;stroke-width:5.0266;stroke-miterlimit:3.9997;stroke-dasharray:16.5677,19.5028;}
	
		.st4{opacity:0.1;clip-path:url(#SVGID_00000046337979463553921870000004054003791854497950_);fill:#4074BC;enable-background:new    ;}
	
		.st5{clip-path:url(#SVGID_00000046337979463553921870000004054003791854497950_);fill-rule:evenodd;clip-rule:evenodd;fill:#FFFFFF;}
	
		.st6{clip-path:url(#SVGID_00000046337979463553921870000004054003791854497950_);fill-rule:evenodd;clip-rule:evenodd;fill:#4074BC;}
	.st7{clip-path:url(#SVGID_00000046337979463553921870000004054003791854497950_);fill:#FFD62E;}
	
		.st8{clip-path:url(#SVGID_00000046337979463553921870000004054003791854497950_);fill:#BBD3FB;stroke:#FFFFFF;stroke-width:5;stroke-miterlimit:3.9997;}
	.st9{clip-path:url(#SVGID_00000046337979463553921870000004054003791854497950_);}
	.st10{fill:none;stroke:#FFFFFF;stroke-width:4.7595;stroke-miterlimit:3.9997;}
	.st11{fill:#FFFFFF;}
	.st12{clip-path:url(#SVGID_00000046337979463553921870000004054003791854497950_);fill:#4074BC;}
	.st13{fill:#4074BC;}
	.st14{fill-rule:evenodd;clip-rule:evenodd;fill:#4074BC;}
</style>
<g>
</g>
<g>
</g>
<g>
</g>
<g>
</g>
<g>
</g>
<g>
</g>
<g>
</g>
<g>
</g>
<g>
</g>
<g>
</g>
<g>
</g>
<g>
</g>
<g>
</g>
<g>
</g>
<g>
</g>
<g>
	<defs>
		<rect id="SVGID_1_" width="500" height="500"/>
	</defs>
	<clipPath id="SVGID_00000154416913526705189920000006545599262102756498_">
		<use xlink:href="#SVGID_1_"  style="overflow:visible;"/>
	</clipPath>
	<rect style="clip-path:url(#SVGID_00000154416913526705189920000006545599262102756498_);fill:none;" width="500" height="500"/>
	<rect style="clip-path:url(#SVGID_00000154416913526705189920000006545599262102756498_);fill:none;" width="500" height="500"/>
	<rect style="clip-path:url(#SVGID_00000154416913526705189920000006545599262102756498_);fill:none;" width="500" height="500"/>
	
		<rect style="clip-path:url(#SVGID_00000154416913526705189920000006545599262102756498_);fill:#E0EBFD;" width="500" height="500"/>
	<rect style="clip-path:url(#SVGID_00000154416913526705189920000006545599262102756498_);fill:none;" width="500" height="500"/>
	<rect style="clip-path:url(#SVGID_00000154416913526705189920000006545599262102756498_);fill:none;" width="500" height="500"/>
	<rect style="clip-path:url(#SVGID_00000154416913526705189920000006545599262102756498_);fill:none;" width="500" height="500"/>
	
		<path style="opacity:0.2;clip-path:url(#SVGID_00000154416913526705189920000006545599262102756498_);fill:#FFFFFF;enable-background:new    ;" d="
		M395.4,51.2c-2,0-4-0.6-5.8-1.6c-48-26.1-89.5-37.2-139.3-37.2c-49.5,0-96.5,12.4-139.3,37.2c-6,3.4-13.5,1.1-17-5.3
		c-3.3-6.3-1-14.5,5-18c46-26.6,98.2-40.5,151.3-40.4c53.3,0,99.8,12.4,150.8,40.1c3,1.7,5.2,4.5,6.2,7.8s0.6,6.8-0.9,9.9
		C404.2,48.6,399.9,51.2,395.4,51.2z M37.6,189.8c-2.6,0-5.1-0.9-7.3-2.4c-5.8-4.2-7-12.4-3-18.5c24.8-37,56.3-66,93.8-86.3
		c78.5-42.8,179-43,257.8-0.3c37.5,20.4,69,49.1,93.8,85.8c4,5.8,2.8,14.3-3,18.5c-1.3,1-2.9,1.7-4.5,2.1c-1.6,0.4-3.3,0.4-5,0.1
		c-1.6-0.3-3.2-0.9-4.6-1.9c-1.4-0.9-2.6-2.2-3.4-3.6c-22.5-33.2-51-59.4-84.8-77.6c-71.8-38.8-163.5-38.8-235,0.3
		c-34,18.5-62.5,44.9-85,78.1c-1,1.7-2.4,3.2-4.1,4.1C41.5,189.4,39.6,189.9,37.6,189.8z M193.9,508.5c-1.7,0-3.3-0.3-4.8-1
		s-2.9-1.7-4-3c-21.8-23-33.5-37.7-50.3-69.7c-17.2-32.4-26.3-72-26.3-114.5c0-78.4,63.5-142.3,141.6-142.3
		c78,0,141.5,63.9,141.5,142.3c0,7.4-5.5,13.2-12.5,13.2s-12.5-5.8-12.5-13.2c0-63.9-52.3-115.9-116.5-115.9
		c-64.3,0-116.5,52-116.5,115.9c0,38,8,73.1,23.3,101.6c16,30.3,27,43.3,46.3,63.9c2.3,2.6,3.6,5.9,3.6,9.4s-1.3,6.8-3.6,9.4
		C200.7,507,197.4,508.4,193.9,508.5z M373.2,459.6c-29.8,0-56-7.9-77.5-23.5c-18.4-13.2-33.4-30.6-43.8-50.8
		c-10.3-20.1-15.8-42.5-15.8-65.1c0-7.4,5.5-13.2,12.5-13.2s12.5,5.8,12.5,13.2c0,18.4,4.4,36.5,12.8,52.9s20.7,30.4,35.7,41.1
		c17.8,12.7,38.5,18.7,63.5,18.7c8.7-0.2,17.4-1,26-2.6c6.8-1.3,13.3,3.4,14.5,10.8c0.6,3.4-0.1,6.9-2,9.7c-1.9,2.9-4.9,4.9-8.3,5.6
		C393.5,458.5,383.3,459.5,373.2,459.6z M322.9,514c-1.1,0-2.2-0.2-3.3-0.5c-39.8-11.6-65.8-27.2-93-55.4
		c-35-36.7-54.3-85.5-54.3-137.8c0-42.8,34.5-77.6,77-77.6s77,34.9,77,77.6c0,28.2,23.3,51.2,52,51.2c28.8,0,52-23,52-51.2
		C430.3,220.8,349,140,249,140c-71,0-136,41.7-165.3,106.4c-9.8,21.4-14.8,46.5-14.8,73.9c0,20.6,1.8,53.1,16.8,95.3
		c2.5,6.9-0.8,14.5-7.2,16.9c-6.5,2.6-13.8-1.1-16-7.7c-12.2-34.6-18.3-68.9-18.3-104.6c0-31.7,5.7-60.5,17-85.5
		C94.5,161,168.2,113.3,249,113.3c113.8,0,206.3,92.7,206.3,206.7c0,42.8-34.5,77.6-77,77.6s-77-34.9-77-77.6
		c0-28.2-23.3-51.2-52-51.2c-28.8,0-52,23-52,51.2c0,45.1,16.5,87.4,46.8,119.1c23.7,24.8,46.5,38.5,81.7,48.8
		c6.8,1.8,10.5,9.2,8.8,16.1C333.4,510,328.1,514,322.9,514z"/>
	<rect style="clip-path:url(#SVGID_00000154416913526705189920000006545599262102756498_);fill:none;" width="500" height="500"/>
	<rect style="clip-path:url(#SVGID_00000154416913526705189920000006545599262102756498_);fill:none;" width="500" height="500"/>
	<rect style="clip-path:url(#SVGID_00000154416913526705189920000006545599262102756498_);fill:none;" width="500" height="500"/>
	<rect style="clip-path:url(#SVGID_00000154416913526705189920000006545599262102756498_);fill:none;" width="500" height="500"/>
	<rect style="clip-path:url(#SVGID_00000154416913526705189920000006545599262102756498_);fill:none;" width="500" height="500"/>
	<rect style="clip-path:url(#SVGID_00000154416913526705189920000006545599262102756498_);fill:none;" width="500" height="500"/>
	<rect style="clip-path:url(#SVGID_00000154416913526705189920000006545599262102756498_);fill:none;" width="500" height="500"/>
	<rect style="clip-path:url(#SVGID_00000154416913526705189920000006545599262102756498_);fill:none;" width="500" height="500"/>
	<rect style="clip-path:url(#SVGID_00000154416913526705189920000006545599262102756498_);fill:none;" width="500" height="500"/>
	<rect style="clip-path:url(#SVGID_00000154416913526705189920000006545599262102756498_);fill:none;" width="500" height="500"/>
	<rect style="clip-path:url(#SVGID_00000154416913526705189920000006545599262102756498_);fill:none;" width="500" height="500"/>
	<rect style="clip-path:url(#SVGID_00000154416913526705189920000006545599262102756498_);fill:none;" width="500" height="500"/>
	<rect style="clip-path:url(#SVGID_00000154416913526705189920000006545599262102756498_);fill:none;" width="500" height="500"/>
	<rect style="clip-path:url(#SVGID_00000154416913526705189920000006545599262102756498_);fill:none;" width="500" height="500"/>
	<rect style="clip-path:url(#SVGID_00000154416913526705189920000006545599262102756498_);fill:none;" width="500" height="500"/>
	<rect style="clip-path:url(#SVGID_00000154416913526705189920000006545599262102756498_);fill:none;" width="500" height="500"/>
	<rect style="clip-path:url(#SVGID_00000154416913526705189920000006545599262102756498_);fill:none;" width="500" height="500"/>
	<rect style="clip-path:url(#SVGID_00000154416913526705189920000006545599262102756498_);fill:none;" width="500" height="500"/>
	<rect style="clip-path:url(#SVGID_00000154416913526705189920000006545599262102756498_);fill:none;" width="500" height="500"/>
	<rect style="clip-path:url(#SVGID_00000154416913526705189920000006545599262102756498_);fill:none;" width="500" height="500"/>
	<rect style="clip-path:url(#SVGID_00000154416913526705189920000006545599262102756498_);fill:none;" width="500" height="500"/>
	<rect style="clip-path:url(#SVGID_00000154416913526705189920000006545599262102756498_);fill:none;" width="500" height="500"/>
	<rect style="clip-path:url(#SVGID_00000154416913526705189920000006545599262102756498_);fill:none;" width="500" height="500"/>
	<rect style="clip-path:url(#SVGID_00000154416913526705189920000006545599262102756498_);fill:none;" width="500" height="500"/>
	<rect style="clip-path:url(#SVGID_00000154416913526705189920000006545599262102756498_);fill:none;" width="500" height="500"/>
	<rect style="clip-path:url(#SVGID_00000154416913526705189920000006545599262102756498_);fill:none;" width="500" height="500"/>
	<rect style="clip-path:url(#SVGID_00000154416913526705189920000006545599262102756498_);fill:none;" width="500" height="500"/>
	<rect style="clip-path:url(#SVGID_00000154416913526705189920000006545599262102756498_);fill:none;" width="500" height="500"/>
	<rect style="clip-path:url(#SVGID_00000154416913526705189920000006545599262102756498_);fill:none;" width="500" height="500"/>
	<rect style="clip-path:url(#SVGID_00000154416913526705189920000006545599262102756498_);fill:none;" width="500" height="500"/>
	<rect style="clip-path:url(#SVGID_00000154416913526705189920000006545599262102756498_);fill:none;" width="500" height="500"/>
	
		<circle style="clip-path:url(#SVGID_00000154416913526705189920000006545599262102756498_);fill:none;stroke:#085FD9;stroke-width:5.0266;stroke-miterlimit:3.9997;stroke-dasharray:16.5677,19.5028;" cx="251" cy="254" r="182.1"/>
	
		<ellipse style="opacity:0.1;clip-path:url(#SVGID_00000154416913526705189920000006545599262102756498_);fill:#4074BC;enable-background:new    ;" cx="250.9" cy="363.1" rx="99.4" ry="11.1"/>
	
		<circle style="clip-path:url(#SVGID_00000154416913526705189920000006545599262102756498_);fill-rule:evenodd;clip-rule:evenodd;fill:#FFFFFF;" cx="252.5" cy="248.5" r="108.5"/>
	
		<circle style="clip-path:url(#SVGID_00000154416913526705189920000006545599262102756498_);fill-rule:evenodd;clip-rule:evenodd;fill:#4074BC;" cx="252.5" cy="254.5" r="102.5"/>
	<path style="clip-path:url(#SVGID_00000154416913526705189920000006545599262102756498_);fill:#FFD62E;" d="M253.7,340.3l-6.5,3.5
		l1.2-7.2l-5.1-5l7.1-1.1l3.1-6.6l3.1,6.6l7.3,1.1l-4.9,4.8l1.2,7.4L253.7,340.3z M292.7,330.8l-6.5,3.5l1.2-7.2l-5.1-5l7.1-1.1
		l3.1-6.6l3.1,6.6l7.3,1.1l-4.9,4.8l1.2,7.4L292.7,330.8z M214.6,330.8l-6.5,3.5l1.2-7.2l-5.1-5l7.1-1.1l3.1-6.6l3.1,6.6l7.3,1.1
		l-4.9,4.8l1.2,7.4L214.6,330.8z M185.9,301.9l-6.5,3.5l1.2-7.2l-5.1-5l7.1-1.1l3.1-6.6l3.1,6.6l7.3,1.1l-4.9,4.8l1.2,7.4
		L185.9,301.9z M321.3,301.9l-6.5,3.5l1.2-7.2l-5.1-5l7.1-1.1l3.1-6.6l3.1,6.6l7.3,1.1l-4.9,4.8l1.2,7.4L321.3,301.9z M175.4,262.6
		l-6.5,3.5l1.2-7.2l-5.1-5l7.1-1.1l3.1-6.6l3.1,6.6l7.3,1.1l-4.9,4.8l1.2,7.4L175.4,262.6z M325.7,258.9l-5.1-5l7.1-1.1l3.1-6.6
		l3.1,6.6l7.3,1.1l-5.1,5l1.4,7.2l-6.5-3.5l-6.5,3.5L325.7,258.9z M321.3,223.5l-6.6,3.3l1.2-7.3l-5.1-5l7.1-1.1l3.1-6.6l3.1,6.6
		l7.5,1.2l-5.2,5.1l1.2,7.4L321.3,223.5z M185.9,223.3l-6.5,3.5l1.2-7.2l-5.1-5l7.1-1.1l3.1-6.6l3.1,6.6l7.3,1.1l-4.9,4.8l1.2,7.4
		L185.9,223.3z M214.6,194.4l-6.5,3.5l1.2-7.2l-5.1-5l7.1-1.1l3.1-6.6l3.1,6.6l7.3,1.1l-4.9,4.8l1.2,7.4L214.6,194.4z M293.6,194.4
		l-6.5,3.5l1.2-7.2l-5.1-5l7.1-1.1l3.1-6.6l3.1,6.6l7.3,1.1l-4.9,4.8l1.2,7.4L293.6,194.4z M253.7,185l-6.5,3.5l1.2-7.2l-5.1-5
		l7.1-1.1l3.1-6.6l3.1,6.6l7.3,1.1l-4.9,4.8l1.2,7.4L253.7,185z"/>
	
		<ellipse transform="matrix(7.088899e-02 -0.9975 0.9975 7.088899e-02 159.2441 325.8006)" style="clip-path:url(#SVGID_00000154416913526705189920000006545599262102756498_);fill:#BBD3FB;stroke:#FFFFFF;stroke-width:5;stroke-miterlimit:3.9997;" cx="254.5" cy="77.4" rx="41.4" ry="41.4"/>
	
		<ellipse transform="matrix(7.088902e-02 -0.9975 0.9975 7.088902e-02 -196.0113 656.7048)" style="clip-path:url(#SVGID_00000154416913526705189920000006545599262102756498_);fill:#BBD3FB;stroke:#FFFFFF;stroke-width:5;stroke-miterlimit:3.9997;" cx="254.5" cy="433.6" rx="41.4" ry="41.4"/>
	
		<ellipse transform="matrix(7.088904e-02 -0.9975 0.9975 7.088904e-02 -185.7107 313.4883)" style="clip-path:url(#SVGID_00000154416913526705189920000006545599262102756498_);fill:#BBD3FB;stroke:#FFFFFF;stroke-width:5;stroke-miterlimit:3.9997;" cx="75.4" cy="256.4" rx="41.4" ry="41.4"/>
	
		<ellipse transform="matrix(7.088900e-02 -0.9975 0.9975 7.088900e-02 145.1935 668.7438)" style="clip-path:url(#SVGID_00000154416913526705189920000006545599262102756498_);fill:#BBD3FB;stroke:#FFFFFF;stroke-width:5;stroke-miterlimit:3.9997;" cx="431.6" cy="256.4" rx="41.4" ry="41.4"/>
	<g style="clip-path:url(#SVGID_00000154416913526705189920000006545599262102756498_);">
		<rect x="226.4" y="229.4" class="st10" width="55.2" height="55.2"/>
		<rect x="223.7" y="210.9" class="st11" width="6.3" height="9.5"/>
		<rect x="241.8" y="210.9" class="st11" width="6.3" height="9.5"/>
		<rect x="259.8" y="210.9" class="st11" width="6.3" height="9.5"/>
		<rect x="277.9" y="210.9" class="st11" width="6.3" height="9.5"/>
		<rect x="223.7" y="293.5" class="st11" width="6.3" height="9.5"/>
		<rect x="241.8" y="293.5" class="st11" width="6.3" height="9.5"/>
		<rect x="259.8" y="293.5" class="st11" width="6.3" height="9.5"/>
		<rect x="277.9" y="293.5" class="st11" width="6.3" height="9.5"/>
		
			<rect x="292" y="279.4" transform="matrix(6.123234e-17 -1 1 6.123234e-17 10.924 579.3143)" class="st11" width="6.3" height="9.5"/>
		
			<rect x="292" y="261.4" transform="matrix(6.123234e-17 -1 1 6.123234e-17 28.97 561.2683)" class="st11" width="6.3" height="9.5"/>
		
			<rect x="292" y="243.4" transform="matrix(6.123234e-17 -1 1 6.123234e-17 47.016 543.2223)" class="st11" width="6.3" height="9.5"/>
		
			<rect x="292" y="225.3" transform="matrix(6.123234e-17 -1 1 6.123234e-17 65.062 525.1763)" class="st11" width="6.3" height="9.5"/>
		
			<rect x="209.3" y="279.4" transform="matrix(6.123234e-17 -1 1 6.123234e-17 -71.6936 496.6967)" class="st11" width="6.3" height="9.5"/>
		
			<rect x="209.3" y="261.4" transform="matrix(6.123234e-17 -1 1 6.123234e-17 -53.6476 478.6507)" class="st11" width="6.3" height="9.5"/>
		
			<rect x="209.3" y="243.4" transform="matrix(6.123234e-17 -1 1 6.123234e-17 -35.6016 460.6047)" class="st11" width="6.3" height="9.5"/>
		
			<rect x="209.3" y="225.3" transform="matrix(6.123234e-17 -1 1 6.123234e-17 -17.5556 442.5587)" class="st11" width="6.3" height="9.5"/>
	</g>
	<path style="clip-path:url(#SVGID_00000154416913526705189920000006545599262102756498_);fill:#4074BC;" d="M258,69.6
		c1.7-0.6,3-2,3.6-3.6h6.2L261.9,80c0,3.3,3.1,6,6.9,6s6.9-2.7,6.9-6l-5.9-14.1h3.9v-4h-12.1c-0.8-2.4-3-4-5.6-4s-4.8,1.7-5.6,4
		h-12.1v4h3.9L236.3,80c0,3.3,3.1,6,6.9,6c3.7,0,6.9-2.7,6.9-6l-5.9-14.1h6.2c0.5,1.8,2,3,3.6,3.6v22.3h-17.6v4h39.2v-4h-17.6
		L258,69.6C258.2,69.6,258,69.6,258,69.6z M272.4,79.9h-7.3l3.6-8.7L272.4,79.9z M247,79.9h-7.3l3.6-8.7L247,79.9z M256,65.9
		c-1.1,0-2-0.9-2-2s0.9-2,2-2c1.1,0,2,0.9,2,2S257.1,65.9,256,65.9z"/>
	<g style="clip-path:url(#SVGID_00000154416913526705189920000006545599262102756498_);">
		<g>
			<path class="st13" d="M99.4,256c-0.4-0.6-10.8-14.5-24-14.5S52,255.4,51.5,256c-0.4,0.6-0.4,1.3,0,1.9c0.4,0.6,10.8,14.5,24,14.5
				s23.5-13.9,24-14.5C99.9,257.3,99.9,256.6,99.4,256z M75.5,269.2c-9.7,0-18.1-9.2-20.6-12.3c2.5-3,10.9-12.3,20.6-12.3
				c9.7,0,18.1,9.2,20.6,12.3C93.6,260,85.2,269.2,75.5,269.2z"/>
		</g>
	</g>
	<g style="clip-path:url(#SVGID_00000154416913526705189920000006545599262102756498_);">
		<g>
			<path class="st13" d="M75.5,247.4c-5.3,0-9.6,4.3-9.6,9.6c0,5.3,4.3,9.6,9.6,9.6s9.6-4.3,9.6-9.6
				C85.1,251.7,80.8,247.4,75.5,247.4z M75.5,263.4c-3.5,0-6.4-2.9-6.4-6.4c0-3.5,2.9-6.4,6.4-6.4c3.5,0,6.4,2.9,6.4,6.4
				C81.9,260.5,79,263.4,75.5,263.4z"/>
		</g>
	</g>
	
		<g id="Layer_2_00000029034045881332415090000000580979668398689920_" style="clip-path:url(#SVGID_00000154416913526705189920000006545599262102756498_);">
		<path class="st13" d="M432.4,281.1c-0.6,0-1.3-0.2-1.8-0.5l-7.2-4c-7.3-4.1-11.9-11.8-11.9-20.2v-11.2c0-1.9,1.5-3.5,3.4-3.7
			c2.9-0.3,5.7-0.9,8.4-1.9c2.5-0.9,4.9-2,7.2-3.4h0c1.2-0.7,2.7-0.7,3.9,0c2.3,1.4,4.7,2.5,7.2,3.4c2.7,1,5.6,1.6,8.4,1.9
			c1.9,0.2,3.4,1.8,3.4,3.7v11.2c0,8.4-4.5,16.1-11.9,20.2l-7.2,4C433.6,280.9,433,281.1,432.4,281.1L432.4,281.1z M432.1,238.9
			c-2.5,1.5-5.1,2.8-7.8,3.7c-3,1-6.1,1.7-9.2,2.1c-0.3,0-0.5,0.3-0.5,0.5v11.2c0,7.2,3.9,13.9,10.2,17.4l7.2,4
			c0.2,0.1,0.4,0.1,0.5,0l7.2-4c6.3-3.5,10.2-10.2,10.2-17.4v-11.2c0-0.3-0.2-0.5-0.5-0.5c-3.1-0.3-6.2-1-9.2-2.1
			c-2.7-1-5.3-2.2-7.8-3.7C432.5,238.8,432.3,238.8,432.1,238.9L432.1,238.9z"/>
		<path class="st13" d="M437.7,269.6H427c-2.7,0-4.8-2.2-4.8-4.8v-6.4c0-2.7,2.2-4.8,4.8-4.8h10.7c2.7,0,4.8,2.2,4.8,4.8v6.4
			C442.6,267.4,440.4,269.6,437.7,269.6z M427,256.7c-0.9,0-1.6,0.7-1.6,1.6v6.4c0,0.9,0.7,1.6,1.6,1.6h10.7c0.9,0,1.6-0.7,1.6-1.6
			v-6.4c0-0.9-0.7-1.6-1.6-1.6H427z"/>
		<path class="st13" d="M436.7,256.7h-8.6c-0.9,0-1.6-0.7-1.6-1.6v-4.3c0-3.3,2.6-5.9,5.9-5.9s5.9,2.6,5.9,5.9v4.3
			C438.3,256,437.5,256.7,436.7,256.7z M429.7,253.5h5.4v-2.7c0-1.5-1.2-2.7-2.7-2.7s-2.7,1.2-2.7,2.7V253.5z"/>
	</g>
	<g transform="translate(-1688 -8)" style="clip-path:url(#SVGID_00000154416913526705189920000006545599262102756498_);">
		<path class="st14" d="M1949.3,422.5h-4.4v-4.4h-2.9v4.4h-4.4v-4.4h-2.9v4.4h-2.9c-1.9,0-3.8,0.8-5.2,2.1c-1.4,1.4-2.1,3.2-2.1,5.2
			v2.9h-4.4v2.9h4.4v4.4h-4.4v2.9h4.4v4.4h-4.4v2.9h4.4v2.9c0,1.9,0.8,3.8,2.1,5.2c1.4,1.4,3.2,2.1,5.2,2.1h2.9v4.4h2.9v-4.4h4.4
			v4.4h2.9v-4.4h4.4v4.4h2.9v-4.4h2.9c1.9,0,3.8-0.8,5.2-2.1c1.4-1.4,2.1-3.2,2.1-5.2v-2.9h4.4v-2.9h-4.4V443h4.4v-2.9h-4.4v-4.4
			h4.4v-2.9h-4.4v-2.9c0-1.9-0.8-3.8-2.1-5.2c-1.4-1.4-3.2-2.1-5.2-2.1h-2.9v-4.4h-2.9V422.5z M1959.6,429.8v23.4
			c0,1.2-0.5,2.3-1.3,3.1c-0.8,0.8-1.9,1.3-3.1,1.3h-23.4c-1.2,0-2.3-0.5-3.1-1.3c-0.8-0.8-1.3-1.9-1.3-3.1v-23.4
			c0-1.2,0.5-2.3,1.3-3.1c0.8-0.8,1.9-1.3,3.1-1.3h23.4c1.2,0,2.3,0.5,3.1,1.3C1959.1,427.5,1959.6,428.7,1959.6,429.8z
			 M1949.3,432.8v17.6h2.9v-17.6H1949.3z M1934.7,437.9v12.5h2.9v-5.1h4.4v5.1h2.9v-12.5c0-2.8-2.3-5.1-5.1-5.1
			C1937,432.8,1934.7,435.1,1934.7,437.9z M1942,442.3v-4.4c0-1.2-1-2.2-2.2-2.2s-2.2,1-2.2,2.2v4.4H1942z"/>
	</g>
</g>
</svg>
